<?xml version="1.0" encoding="utf-8"?>
<!-- Generator: Adobe Illustrator 18.0.0, SVG Export Plug-In . SVG Version: 6.00 Build 0)  -->
<!DOCTYPE svg PUBLIC "-//W3C//DTD SVG 1.1//EN" "http://www.w3.org/Graphics/SVG/1.1/DTD/svg11.dtd">
<svg version="1.1" id="Layer_1" xmlns="http://www.w3.org/2000/svg" xmlns:xlink="http://www.w3.org/1999/xlink" x="0px" y="0px"
	 viewBox="0 0 679 247" enable-background="new 0 0 679 247" xml:space="preserve">
<rect y="-106" fill="#283457" width="679" height="459"/>
<g>
	<g>
		<path fill="#02E966" d="M49.3,206.4H36.8v25.5h-5.6v-25.5H18.7v-4.9h30.6V206.4z"/>
		<path fill="#02E966" d="M102.2,231.9H75.3v-30.4h26.5v4.9h-21v7.5h12.6v4.9H80.9v8.2h21.3V231.9z"/>
		<path fill="#02E966" d="M158.7,226.5c0,1.3-0.6,2.6-1.7,3.7c-1.1,1.1-2.3,1.7-3.6,1.7h-18.1c-1.3,0-2.5-0.6-3.7-1.7
			c-1.1-1.1-1.7-2.3-1.7-3.7v-19.6c0-1.3,0.6-2.6,1.7-3.7c1.2-1.1,2.4-1.7,3.7-1.7h18.1c1.3,0,2.5,0.6,3.6,1.7
			c1.2,1.1,1.7,2.3,1.7,3.7v4.9l-5.5,1.1v-6.4h-17.7v20.4h17.7v-6.7l5.5,1V226.5z"/>
		<path fill="#02E966" d="M218.5,231.9h-5.6v-13.4h-19.2v13.4h-5.6v-30.4h5.6v12.2h19.2v-12.2h5.6V231.9z"/>
		<path fill="#02E966" d="M278.9,231.9h-4.2l-20.8-21.7v21.7h-5.2v-30.4h4.2l20.8,21.7v-21.7h5.2V231.9z"/>
		<path fill="#02E966" d="M339.9,226.5c0,1.3-0.6,2.6-1.7,3.7c-1.1,1.1-2.3,1.7-3.6,1.7H314c-1.3,0-2.5-0.6-3.7-1.7
			c-1.1-1.1-1.7-2.3-1.7-3.7v-19.6c0-1.3,0.6-2.6,1.7-3.7c1.2-1.1,2.4-1.7,3.7-1.7h20.5c1.3,0,2.5,0.6,3.6,1.7
			c1.2,1.1,1.7,2.3,1.7,3.7V226.5z M334.2,226.8v-20.4h-19.9v20.4H334.2z"/>
		<path fill="#02E966" d="M394.9,231.9h-25.2v-30.4h5.6v25.4h19.7V231.9z"/>
		<path fill="#02E966" d="M452.1,226.5c0,1.3-0.6,2.6-1.7,3.7c-1.1,1.1-2.3,1.7-3.6,1.7h-20.5c-1.3,0-2.5-0.6-3.7-1.7
			c-1.1-1.1-1.7-2.3-1.7-3.7v-19.6c0-1.3,0.6-2.6,1.7-3.7c1.2-1.1,2.4-1.7,3.7-1.7h20.5c1.3,0,2.5,0.6,3.6,1.7
			c1.2,1.1,1.7,2.3,1.7,3.7V226.5z M446.5,226.8v-20.4h-19.9v20.4H446.5z"/>
		<path fill="#02E966" d="M512.2,226.5c0,1.4-0.5,2.7-1.6,3.8c-1.1,1.1-2.3,1.6-3.8,1.6h-20c-1.4,0-2.7-0.5-3.8-1.6
			c-1.1-1.1-1.6-2.3-1.6-3.8v-19.6c0-1.4,0.5-2.7,1.6-3.8c1.1-1.1,2.3-1.6,3.8-1.6h20c1.4,0,2.7,0.5,3.8,1.6
			c1.1,1.1,1.6,2.3,1.6,3.8v2.5l-5.5,1.1v-4h-19.6v20.4h19.5v-7.5h-9.8v-4.6h15.3V226.5z"/>
		<path fill="#02E966" d="M547.3,231.9h-5.6v-30.4h5.6V231.9z"/>
		<path fill="#02E966" d="M604.3,231.9h-26.8v-30.4H604v4.9h-21v7.5h12.6v4.9h-12.6v8.2h21.3V231.9z"/>
		<path fill="#02E966" d="M660.1,226.5c0,1.3-0.6,2.6-1.7,3.7c-1.1,1.1-2.3,1.7-3.6,1.7h-18.3c-1.4,0-2.6-0.5-3.7-1.6
			c-1.1-1.1-1.6-2.3-1.6-3.6v-2l5.3-1.1v3.2h18.1V219h-17.9c-1.3,0-2.5-0.5-3.6-1.6c-1-1-1.6-2.2-1.6-3.6v-7c0-1.3,0.6-2.6,1.7-3.7
			c1.2-1.1,2.4-1.7,3.7-1.7h17.4c1.4,0,2.6,0.5,3.7,1.6c1.1,1,1.6,2.2,1.6,3.5v1.8l-5.3,1.1v-3.1h-17.2v7.6H655
			c1.3,0,2.5,0.5,3.5,1.6c1.1,1,1.6,2.2,1.6,3.6V226.5z"/>
	</g>
	<path fill="#FFFFFF" d="M54.9,173H18.7V23.9h36.2v57.9h56.6l50.7-57.9h45.4l-53.2,59.4c17.6,3.4,31.3,11.2,41,23.4
		c9.7,12.2,14.6,28.5,14.6,49V173h-36.4v-18.1c0-26.4-13-39.6-39-39.6H54.9V173z"/>
	<path fill="#FFFFFF" d="M660.3,23.9v75c0,11.6-1.6,22-4.9,31.2c-3.3,9.2-8.1,16.9-14.4,23.3c-6.3,6.4-14.1,11.3-23.3,14.6
		c-9.2,3.3-19.8,5-31.7,5H464.4v-35.3h120.7c11.1,0,19.5-1.9,25.2-5.6c5.8-3.8,9.6-9.3,11.6-16.5H464.4V23.9h36.2v59h123.5v-59
		H660.3z"/>
	<path fill="#02E966" d="M280.1,26.9l45.1,46.5l0.4,0.5l-0.4,0.5l-19,19.6l-0.2,0.2l-0.2-0.2l-65-67H280.1 M427.6,15.1
		c-3.6,0-6.8,2.2-8.1,5.3h-42.5l-47,48.5l-47-48.5h-57.3l75.7,78l4.8,5l4.8-5l19-19.6l4.8-5l45.1-46.5h39.5c1.3,3.2,4.5,5.4,8.2,5.4
		c4.9,0,8.8-4,8.8-8.8C436.4,19.1,432.4,15.1,427.6,15.1L427.6,15.1z M427.6,28c-2.2,0-4-1.8-4-4c0-2.2,1.8-4,4-4c2.2,0,4,1.8,4,4
		C431.6,26.2,429.8,28,427.6,28L427.6,28z"/>
	<path fill="#02E966" d="M417.7,44.3c0,1.9,0.4,4,0.4,6c0.1-0.8,0.1-1.5,0.1-2.3c0-1.4-0.1-2.8-0.3-4.2h-0.3
		C417.7,44,417.7,44.1,417.7,44.3C417.7,44.3,417.7,44.3,417.7,44.3z"/>
	<path fill="#FFFFFF" d="M427.4,38.5c-3.6,0-6.8,2.2-8.1,5.3h-1.1c0.3,2.2,0.6,4.7,0.5,6.9h0.6c1.3,3.2,4.5,5.4,8.2,5.4
		c4.9,0,8.8-4,8.8-8.8C436.2,42.5,432.2,38.5,427.4,38.5z M427.4,51.4c-2.2,0-4-1.8-4-4c0-2.2,1.8-4,4-4c2.2,0,4,1.8,4,4
		C431.4,49.6,429.6,51.4,427.4,51.4z"/>
	<path fill="#02E966" d="M379.4,169.3l-45.1-46.5l-0.4-0.5l0.4-0.5l19-19.6l0.2-0.2l0.2,0.2l65,67H379.4 M231.9,181.2
		c3.6,0,6.8-2.2,8.1-5.3l42.5,0l47-48.5l47,48.5H434l-75.7-78l-4.8-5l-4.8,5l-19,19.6l-4.8,5l-45.1,46.5h-39.5
		c-1.3-3.2-4.5-5.4-8.2-5.4c-4.9,0-8.8,4-8.8,8.8C223.1,177.2,227.1,181.2,231.9,181.2L231.9,181.2z M231.9,168.3c2.2,0,4,1.8,4,4
		c0,2.2-1.8,4-4,4c-2.2,0-4-1.8-4-4C227.9,170.1,229.7,168.3,231.9,168.3L231.9,168.3z"/>
	<path fill="#FFFFFF" d="M240.7,147.8h-0.6c-1.3-3.2-4.5-5.4-8.2-5.4c-4.9,0-8.8,4-8.8,8.8c0,4.9,4,8.8,8.8,8.8c3.5,0,6.5-2,7.9-5
		C240.2,152.8,240.3,150.3,240.7,147.8z M231.9,155.3c-2.2,0-4-1.8-4-4c0-2.2,1.8-4,4-4c2.2,0,4,1.8,4,4
		C236,153.5,234.2,155.3,231.9,155.3z"/>
	<g>
		<polygon fill="#FFFFFF" points="278.8,154.8 238.3,154.8 238.3,148.3 276.1,148.3 380.3,44.1 421.7,44.1 421.7,50.6 383,50.6 		
			"/>
	</g>
</g>
</svg>
